<svg width="24" height="24" viewBox="0 0 24 24" fill="none" xmlns="http://www.w3.org/2000/svg">
<mask id="mask0_248_3054" style="mask-type:luminance" maskUnits="userSpaceOnUse" x="2" y="3" width="20" height="19">
<path fill-rule="evenodd" clip-rule="evenodd" d="M2 3.00098H22V21.167H2V3.00098Z" fill="white"/>
</mask>
<g mask="url(#mask0_248_3054)">
<path fill-rule="evenodd" clip-rule="evenodd" d="M3.5 14.98V17.025C3.5 17.731 3.774 18.394 4.273 18.893C4.772 19.392 5.436 19.667 6.141 19.667H17.857C19.313 19.667 20.499 18.483 20.5 17.027V14.979C19.214 14.646 18.261 13.475 18.26 12.086C18.26 10.697 19.213 9.52598 20.499 9.19198L20.5 7.14698C20.501 5.68898 19.318 4.50198 17.861 4.50098H6.144C4.687 4.50098 3.501 5.68598 3.5 7.14298V9.25998C3.986 9.37598 4.437 9.61498 4.812 9.96498C5.381 10.496 5.709 11.216 5.737 11.994C5.74 13.46 4.787 14.644 3.5 14.98ZM17.857 21.167H6.142C5.035 21.167 3.995 20.737 3.212 19.954C2.43 19.171 2 18.131 2 17.025V14.325C2 13.911 2.336 13.575 2.75 13.575C3.574 13.574 4.24 12.906 4.239 12.086C4.225 11.668 4.065 11.32 3.789 11.062C3.514 10.804 3.158 10.663 2.776 10.684C2.569 10.686 2.375 10.615 2.229 10.474C2.083 10.333 2 10.137 2 9.93398V7.14398C2.001 4.85898 3.86 3.00098 6.144 3.00098H17.856C20.146 3.00198 22.002 4.86398 22 7.14798V9.84698C22 10.261 21.664 10.597 21.25 10.597C20.429 10.597 19.76 11.265 19.76 12.085C19.761 12.907 20.429 13.575 21.25 13.575C21.664 13.575 22 13.911 22 14.325V17.025C21.999 19.309 20.14 21.167 17.857 21.167Z" fill="#828282"/>
</g>
<path fill-rule="evenodd" clip-rule="evenodd" d="M10.1039 11.382L10.6129 11.878C10.8889 12.149 11.0139 12.535 10.9479 12.912L10.8279 13.61L11.4569 13.279C11.7959 13.098 12.2029 13.099 12.5449 13.281L13.1699 13.609L13.0499 12.91C12.9869 12.527 13.1129 12.144 13.3859 11.878L13.8949 11.382L13.1899 11.28C12.8119 11.225 12.4839 10.987 12.3149 10.642L11.9999 10.005L11.6849 10.643C11.5159 10.987 11.1879 11.225 10.8079 11.28L10.1039 11.382ZM13.6179 15.388C13.4319 15.388 13.2459 15.343 13.0739 15.252L11.9999 14.689L10.9249 15.253C10.5289 15.46 10.0579 15.427 9.69789 15.165C9.33689 14.902 9.15989 14.466 9.23489 14.026L9.43989 12.83L8.57089 11.983C8.25189 11.672 8.13789 11.215 8.27489 10.791C8.41289 10.366 8.77289 10.061 9.21389 9.99701L10.4179 9.82101L10.9549 8.73201C11.1519 8.33201 11.5519 8.08301 11.9999 8.08301C12.4459 8.08301 12.8469 8.33201 13.0439 8.73301L13.5819 9.82101L14.7839 9.99701C15.2259 10.061 15.5869 10.366 15.7239 10.791C15.8609 11.215 15.7479 11.672 15.4279 11.984L14.5579 12.831L14.7639 14.026C14.8389 14.467 14.6609 14.904 14.2989 15.166C14.0949 15.313 13.8569 15.388 13.6179 15.388Z" fill="#828282"/>
</svg>
