<svg width="28" height="25" viewBox="0 0 28 25" fill="none" xmlns="http://www.w3.org/2000/svg">
<path fill-rule="evenodd" clip-rule="evenodd" d="M18.3351 17.6816H9.91174C9.42874 17.6816 9.03674 17.3316 9.03674 16.9004C9.03674 16.4691 9.42874 16.1191 9.91174 16.1191H18.3351C18.8181 16.1191 19.2101 16.4691 19.2101 16.9004C19.2101 17.3316 18.8181 17.6816 18.3351 17.6816Z" fill="#828282"/>
<path fill-rule="evenodd" clip-rule="evenodd" d="M18.3351 13.3203H9.91174C9.42874 13.3203 9.03674 12.9703 9.03674 12.5391C9.03674 12.1078 9.42874 11.7578 9.91174 11.7578H18.3351C18.8181 11.7578 19.2101 12.1078 19.2101 12.5391C19.2101 12.9703 18.8181 13.3203 18.3351 13.3203Z" fill="#828282"/>
<path fill-rule="evenodd" clip-rule="evenodd" d="M13.1256 8.96973H9.91144C9.42844 8.96973 9.03644 8.61973 9.03644 8.18848C9.03644 7.75723 9.42844 7.40723 9.91144 7.40723H13.1256C13.6086 7.40723 14.0006 7.75723 14.0006 8.18848C14.0006 8.61973 13.6086 8.96973 13.1256 8.96973Z" fill="#828282"/>
<mask id="mask0_248_3050" style="mask-type:luminance" maskUnits="userSpaceOnUse" x="3" y="2" width="22" height="21">
<path fill-rule="evenodd" clip-rule="evenodd" d="M3.5 2.08398H24.6922V22.8234H3.5V2.08398Z" fill="white"/>
</mask>
<g mask="url(#mask0_248_3050)">
<path fill-rule="evenodd" clip-rule="evenodd" d="M18.5601 3.64648L9.58963 3.65065C6.87363 3.66523 5.24963 5.16523 5.24963 7.66419V17.2434C5.24963 19.759 6.8888 21.2611 9.63163 21.2611L18.6021 21.2579C21.3181 21.2434 22.9421 19.7413 22.9421 17.2434V7.66419C22.9421 5.14857 21.3041 3.64648 18.5601 3.64648ZM9.6328 22.8236C5.9648 22.8236 3.49963 20.5809 3.49963 17.2434V7.66419C3.49963 4.29648 5.8878 2.10794 9.5838 2.08815L18.559 2.08398H18.5601C22.2281 2.08398 24.6921 4.32669 24.6921 7.66419V17.2434C24.6921 20.61 22.304 22.7996 18.608 22.8204L9.6328 22.8236Z" fill="#828282"/>
</g>
</svg>
