<svg width="166" height="165" viewBox="0 0 166 165" fill="none" xmlns="http://www.w3.org/2000/svg">
<g opacity="0.2">
<mask id="mask0_287_3129" style="mask-type:luminance" maskUnits="userSpaceOnUse" x="14" y="20" width="135" height="135">
<path fill-rule="evenodd" clip-rule="evenodd" d="M14.25 20.6279H148.306V154.684H14.25V20.6279Z" fill="white"/>
</mask>
<g mask="url(#mask0_287_3129)">
<path fill-rule="evenodd" clip-rule="evenodd" d="M74.7835 101.872L99.9254 142.662C101.025 144.449 102.744 144.429 103.439 144.332C104.133 144.236 105.804 143.81 106.409 141.782L137.848 35.5975C138.398 33.7206 137.387 32.4418 136.934 31.9881C136.493 31.5343 135.235 30.565 133.414 31.0806L27.1535 62.1968C25.1391 62.7881 24.6991 64.4793 24.6029 65.1737C24.5066 65.8818 24.4791 67.635 26.2598 68.7556L67.5166 94.5575L103.968 57.7212C105.969 55.7 109.234 55.6793 111.262 57.68C113.29 59.6806 113.304 62.9531 111.304 64.9743L74.7835 101.872ZM102.902 154.686C98.1173 154.686 93.731 152.252 91.146 148.072L64.4916 104.822L20.7941 77.4937C16.0848 74.5443 13.6235 69.2918 14.3866 63.7712C15.1429 58.2506 18.931 53.8643 24.2523 52.3037L130.512 21.1875C135.4 19.7575 140.639 21.1118 144.242 24.7006C147.844 28.3237 149.185 33.6175 147.727 38.5262L116.288 144.704C114.714 150.046 110.314 153.82 104.807 154.556C104.16 154.638 103.535 154.686 102.902 154.686Z" fill="black"/>
</g>
</g>
</svg>
