<svg width="78" height="94" viewBox="0 0 78 94" fill="none" xmlns="http://www.w3.org/2000/svg">
<path fill-rule="evenodd" clip-rule="evenodd" d="M39.8006 86.1666C35.3983 86.1666 31.1065 86.1079 26.8602 86.0021C21.428 85.8729 17.669 81.6272 17.055 74.9219C16.0316 63.7985 14.2804 37.5804 14.2642 37.3179C14.1537 35.7004 15.1544 34.2825 16.4962 34.1533C17.8185 34.1102 19.0141 35.2304 19.1213 36.844C19.1376 37.1104 20.8855 63.2384 21.8991 74.2756C22.2468 78.0865 23.9524 80.0527 26.9609 80.1271C35.0832 80.3347 43.3712 80.3464 52.3056 80.1506C55.5026 80.0762 57.231 78.1492 57.5884 74.2482C58.5955 63.305 60.3499 37.1104 60.3694 36.844C60.4767 35.2304 61.6625 34.1024 62.9913 34.1533C64.3331 34.2864 65.3338 35.7004 65.2266 37.3179C65.2071 37.5843 63.4461 63.869 62.4325 74.8944C61.8022 81.7369 58.053 85.9003 52.3934 86.0256C48.0626 86.1157 43.8845 86.1666 39.8006 86.1666Z" fill="black"/>
<path fill-rule="evenodd" clip-rule="evenodd" d="M67.2914 27.3748H12.1964C10.8514 27.3748 9.75977 26.0588 9.75977 24.4373C9.75977 22.8158 10.8514 21.4998 12.1964 21.4998H67.2914C68.6365 21.4998 69.7281 22.8158 69.7281 24.4373C69.7281 26.0588 68.6365 27.3748 67.2914 27.3748Z" fill="black"/>
<path fill-rule="evenodd" clip-rule="evenodd" d="M56.675 27.3747C52.9778 27.3747 49.7679 24.1983 49.0401 19.8273L48.2506 15.0646C48.0849 14.3401 47.3994 13.7095 46.6197 13.7095H32.867C32.0873 13.7095 31.4018 14.3401 31.2036 15.2448L30.4466 19.8273C29.7221 24.1983 26.5089 27.3747 22.8117 27.3747C21.4666 27.3747 20.375 26.0587 20.375 24.4372C20.375 22.8157 21.4666 21.4997 22.8117 21.4997C24.1957 21.4997 25.3978 20.3091 25.6707 18.6719L26.4602 13.9092C27.2627 10.2589 29.8846 7.83447 32.867 7.83447H46.6197C49.6022 7.83447 52.224 10.2589 52.994 13.733L53.8192 18.6719C54.0889 20.3091 55.291 21.4997 56.675 21.4997C58.0201 21.4997 59.1117 22.8157 59.1117 24.4372C59.1117 26.0587 58.0201 27.3747 56.675 27.3747Z" fill="black"/>
</svg>
