<svg width="1440" height="399" viewBox="0 0 1440 399" fill="none" xmlns="http://www.w3.org/2000/svg">
<rect x="100" y="322.279" width="100" height="100" transform="rotate(-40 100 322.279)" fill="#FB3F6B"/>
<rect x="121.442" y="324.437" width="70" height="70" transform="rotate(-40 121.442 324.437)" fill="#FFB101"/>
<rect x="145.442" y="325.939" width="35" height="35" transform="rotate(-40 145.442 325.939)" fill="#0B1477"/>
<rect x="1244" y="301.925" width="120" height="120" transform="rotate(-50 1244 301.925)" fill="#FFB101"/>
<rect x="1273" y="300.284" width="80" height="80" transform="rotate(-50 1273 300.284)" fill="#FB406A"/>
<rect x="1294" y="298.302" width="50" height="50" transform="rotate(-50 1294 298.302)" fill="#0B1477"/>
<rect x="-43" y="165.313" width="34.2652" height="216.336" transform="rotate(-41.4089 -43 165.313)" fill="url(#paint0_linear_407_3089)"/>
<rect x="-43" y="113.313" width="34.6446" height="258.013" transform="rotate(-41.4089 -43 113.313)" fill="url(#paint1_linear_407_3089)"/>
<rect x="-43.8449" y="60.4795" width="33.3422" height="300.111" transform="rotate(-41.4089 -43.8449 60.4795)" fill="url(#paint2_linear_407_3089)"/>
<rect x="1351.55" y="235.521" width="40" height="216.336" transform="rotate(-140 1351.55 235.521)" fill="url(#paint3_linear_407_3089)"/>
<rect x="1381.88" y="260.791" width="40" height="216.336" transform="rotate(-140 1381.88 260.791)" fill="url(#paint4_linear_407_3089)"/>
<rect x="1412.25" y="286.748" width="40" height="216.336" transform="rotate(-140 1412.25 286.748)" fill="url(#paint5_linear_407_3089)"/>
<rect x="144" y="51.423" width="80" height="80" transform="rotate(-40 144 51.423)" fill="#FFC9D7"/>
<rect x="161.353" y="52.7064" width="55" height="55" transform="rotate(-40 161.353 52.7064)" fill="#FB3F6B"/>
<rect x="179.353" y="54.6367" width="30" height="30" transform="rotate(-40 179.353 54.6367)" fill="#0B1477"/>
<rect x="1181" y="139.284" width="80" height="80" transform="rotate(-50 1181 139.284)" fill="#FFE8B2"/>
<rect x="1198.35" y="137.486" width="55" height="55" transform="rotate(-50 1198.35 137.486)" fill="#FB3F6B"/>
<rect x="1216.35" y="136.334" width="30" height="30" transform="rotate(-50 1216.35 136.334)" fill="#0B1477"/>
<defs>
<linearGradient id="paint0_linear_407_3089" x1="-25.8674" y1="165.313" x2="-25.8674" y2="381.649" gradientUnits="userSpaceOnUse">
<stop stop-color="#FB3F6C"/>
<stop offset="1" stop-color="#FB3F6C" stop-opacity="0"/>
</linearGradient>
<linearGradient id="paint1_linear_407_3089" x1="-25.6777" y1="113.313" x2="-25.6777" y2="371.326" gradientUnits="userSpaceOnUse">
<stop stop-color="#0C1478"/>
<stop offset="1" stop-color="#0C1478" stop-opacity="0"/>
</linearGradient>
<linearGradient id="paint2_linear_407_3089" x1="-27.1738" y1="60.4795" x2="-27.1738" y2="360.59" gradientUnits="userSpaceOnUse">
<stop stop-color="#FB406E"/>
<stop offset="1" stop-color="#FB406E" stop-opacity="0"/>
</linearGradient>
<linearGradient id="paint3_linear_407_3089" x1="1371.55" y1="235.521" x2="1371.55" y2="451.857" gradientUnits="userSpaceOnUse">
<stop stop-color="#EDA90E" stop-opacity="0.7"/>
<stop offset="1" stop-color="#EDA90E" stop-opacity="0"/>
</linearGradient>
<linearGradient id="paint4_linear_407_3089" x1="1401.88" y1="260.791" x2="1401.88" y2="477.127" gradientUnits="userSpaceOnUse">
<stop stop-color="#0B1477" stop-opacity="0.8"/>
<stop offset="1" stop-color="#0B1477" stop-opacity="0"/>
</linearGradient>
<linearGradient id="paint5_linear_407_3089" x1="1432.25" y1="286.748" x2="1432.25" y2="503.084" gradientUnits="userSpaceOnUse">
<stop stop-color="#EDA90E" stop-opacity="0.7"/>
<stop offset="1" stop-color="#EDA90E" stop-opacity="0"/>
</linearGradient>
</defs>
</svg>
