<svg width="1440" height="398" viewBox="0 0 1440 398" fill="none" xmlns="http://www.w3.org/2000/svg">
<path d="M126.5 188.72C37 222.72 12.2297 285.49 -27 398.22H1485.5C1485.5 398.22 1550.5 159.62 1437 67.2195C1323.5 -25.181 1180.5 3.71912 1133.5 6.21954C1086.5 8.71997 216 154.72 126.5 188.72Z" fill="url(#paint0_linear_357_3090)"/>
<path d="M1443.5 69C1443.5 69 1407.57 118.555 1366.05 140.884C1318.86 166.264 1226.64 171.892 1226.64 171.892C1226.64 171.892 1170.31 173.091 1122.5 195.5C1075.5 217.527 1025 283 1025 283C1025 283 965.634 339.867 923.871 360.763C877.048 384.191 801 397 801 397" stroke="#0084F4"/>
<path d="M1466.5 104C1466.5 104 1430.57 153.555 1389.05 175.884C1341.86 201.264 1249.64 206.892 1249.64 206.892C1249.64 206.892 1193.31 208.091 1145.5 230.5C1098.5 252.527 1048 318 1048 318C1048 318 988.634 374.867 946.871 395.763C900.048 419.191 824 432 824 432" stroke="#0084F4"/>
<path d="M1489.5 139C1489.5 139 1453.57 188.555 1412.05 210.884C1364.86 236.264 1272.64 241.892 1272.64 241.892C1272.64 241.892 1216.31 243.091 1168.5 265.5C1121.5 287.527 1071 353 1071 353C1071 353 1011.63 409.867 969.871 430.763C923.048 454.191 847 467 847 467" stroke="#0084F4"/>
<path d="M1512.5 174C1512.5 174 1476.57 223.555 1435.05 245.884C1387.86 271.264 1295.64 276.892 1295.64 276.892C1295.64 276.892 1239.31 278.091 1191.5 300.5C1144.5 322.527 1094 388 1094 388C1094 388 1034.63 444.867 992.871 465.763C946.048 489.191 870 502 870 502" stroke="#0084F4"/>
<defs>
<linearGradient id="paint0_linear_357_3090" x1="-43.5" y1="258.22" x2="1504" y2="260.72" gradientUnits="userSpaceOnUse">
<stop stop-color="#2C5BF7"/>
<stop offset="0.998114" stop-color="#40B4FD"/>
</linearGradient>
</defs>
</svg>
